<?xml version="1.0" encoding="UTF-8" standalone="no"?><!DOCTYPE svg PUBLIC "-//W3C//DTD SVG 1.1//EN" "http://www.w3.org/Graphics/SVG/1.1/DTD/svg11.dtd"><svg width="100%" height="100%" viewBox="0 0 1278 169" version="1.1" xmlns="http://www.w3.org/2000/svg" xmlns:xlink="http://www.w3.org/1999/xlink" xml:space="preserve" xmlns:serif="http://www.serif.com/" style="fill-rule:evenodd;clip-rule:evenodd;stroke-linejoin:round;stroke-miterlimit:2;"><rect x="1167.75" y="77.275" width="109.5" height="11.25" style="fill:#021c55;"/><rect x="1167.75" y="0.001" width="109.5" height="11.25" style="fill:#021c55;"/><rect x="1167.75" y="157.501" width="109.5" height="11.25" style="fill:#021c55;"/><path d="M77.275,0l-77.275,168.001l12.75,0l70.5,-154.5l70.5,154.5l12.75,0l-77.25,-168l-11.975,-0.001Z" style="fill:#021c55;"/><path d="M491.275,0.001l-77.275,168.002l12.75,-0l70.5,-154.5l70.5,154.5l12.75,-0l-77.25,-168l-11.975,-0.002Z" style="fill:#021c55;"/><path d="M221.25,84.001l12,0l0,73.5l60,0c63.935,-3.145 72.34,-54.9 72.75,-73.5c-0.594,-15.776 -7.071,-68.141 -73.065,-73.5l-71.685,0l0,-10.5l73.27,0c56.167,3.704 83.183,45.49 83.48,83.951c-2.365,64.684 -55.192,83.643 -84.75,84.049l-72,0l0,-84Z" style="fill:#021c55;"/><path d="M598.5,0.001l0,10.5l60,0l0.75,157.5l12,0l0,-157.5l60.75,0l0,-10.5l-133.5,0Z" style="fill:#021c55;"/><path d="M786,0.001l0,10.5l67.5,0c40.951,2.332 47.803,31.733 48,45c0.222,14.948 -2.459,43.132 -47.25,47.25l-68.25,0l0.007,65.25l11.993,0l0,-54.75l49.5,0c8.783,0.09 11.712,-0.346 15,-0.75l40.433,55.738l13.303,-0.179l-41.736,-58.559c33.028,-10.375 39.697,-37.214 39.75,-54c-0.462,-13.813 -7.425,-52.556 -61.5,-55.5l-66.75,0Z" style="fill:#021c55;"/><rect x="982.5" y="77.275" width="109.5" height="11.25" style="fill:#021c55;"/><rect x="982.5" y="0.001" width="109.5" height="11.25" style="fill:#021c55;"/><rect x="982.5" y="157.501" width="109.5" height="11.25" style="fill:#021c55;"/></svg>