<svg xmlns="http://www.w3.org/2000/svg" data-name="Layer 1" viewBox="0 0 1281.26 464.88"><path fill="#13216a" d="M86.51 374.12a12.34 12.34 0 1 1-17.87 17A228 228 0 0 1 5.46 233.23a231.81 231.81 0 0 1 2.68-35.14 12.34 12.34 0 0 1 24.4 3.76 206.76 206.76 0 0 0-2.4 31.38 203.35 203.35 0 0 0 56.37 140.89Zm335.84-32.51a12.34 12.34 0 0 0-17.08 3.54A207 207 0 0 1 382.4 374a12.34 12.34 0 0 0 17.88 17 230.37 230.37 0 0 0 25.62-32.3 12.34 12.34 0 0 0-3.55-17.09Zm7.37-227.84a12.34 12.34 0 0 0-21.05 12.9 204.73 204.73 0 0 1 18.74 173.52 12.34 12.34 0 1 0 23.32 8.09 229.37 229.37 0 0 0-21-194.51ZM30.05 160.19a12.21 12.21 0 0 0 4.81 1 12.35 12.35 0 0 0 11.37-7.53 205 205 0 0 1 95.26-102.38 12.34 12.34 0 1 0-11.25-22A229.73 229.73 0 0 0 23.5 144a12.33 12.33 0 0 0 6.55 16.19Zm158.53-126a204.59 204.59 0 0 1 188.85 53.3 12.34 12.34 0 0 0 17.29-17.62 229.21 229.21 0 0 0-211.65-59.79 12.34 12.34 0 1 0 5.51 24.06Zm-50.79 199.04a96.47 96.47 0 0 1 11.92-46.44 12.34 12.34 0 1 0-21.62-11.91A121.06 121.06 0 0 0 139.77 309 12.34 12.34 0 0 0 159 293.58a95.43 95.43 0 0 1-21.21-60.35Zm202.28-14.13a12.06 12.06 0 0 0 3-.38 12.33 12.33 0 0 0 9-15 121.23 121.23 0 0 0-183.71-72.2 12.34 12.34 0 0 0 13.48 20.68 96.54 96.54 0 0 1 146.29 57.52 12.34 12.34 0 0 0 11.94 9.38ZM343 248a12.33 12.33 0 0 0-15 8.94 95.64 95.64 0 0 1-18.47 36.92 12.34 12.34 0 1 0 19.21 15.51A120.29 120.29 0 0 0 352 262.94a12.34 12.34 0 0 0-9-14.94Zm6.7-146.36a12.34 12.34 0 0 0-16.28 18.55 150.16 150.16 0 0 1 18 207.4A12.34 12.34 0 0 0 370.71 343a174.82 174.82 0 0 0-21-241.45Zm-251 196.7A12.34 12.34 0 0 0 76.54 309a176.15 176.15 0 0 0 21.36 33.83 12.35 12.35 0 0 0 19.24-15.48 150.81 150.81 0 0 1-18.36-29.06Zm111-213.46a12.34 12.34 0 0 0-4-24.35 175.38 175.38 0 0 0-146.42 172.7 177.73 177.73 0 0 0 1.24 20.83A12.34 12.34 0 1 0 85 251.15a154.24 154.24 0 0 1-1-17.92 150.68 150.68 0 0 1 125.74-148.4Zm53.15-24.38a12.34 12.34 0 1 0-4 24.36 149.36 149.36 0 0 1 32.86 9.36 12.34 12.34 0 0 0 9.44-22.8 173.72 173.72 0 0 0-38.26-10.97Zm29.72 172.78A58.22 58.22 0 1 1 234.39 175a58.22 58.22 0 0 1 58.22 58.23Zm59.48 168.91a127 127 0 0 0-235.39 0 123.62 123.62 0 0 0-4.6 13.48 11.11 11.11 0 0 0 5 12.48 227.83 227.83 0 0 0 234.51 0 11.13 11.13 0 0 0 5-12.49 124.18 124.18 0 0 0-4.48-13.52Zm281-286.33a50.39 50.39 0 0 0-28.43-8.66c-21.14 0-35.18 14.56-35.18 38.13 0 23.92 13.69 39 35.53 39 11.09 0 21.67-4.16 29.64-9.71l4 19.41c-8.67 5.2-22.19 8.5-34.5 8.5-33.28 0-56-21-56-56.51 0-34.66 22.7-57 56.5-57 12.66 0 25.66 3.29 35 8.49Zm53.88 86.67c-23.4 0-40.38-15.95-40.38-42.47 0-26.34 17.85-42.81 41.42-42.81s40.39 16.29 40.39 42.64c0 26.11-18.03 42.59-41.43 42.59Zm.35-68.81c-13.35 0-20.63 10.74-20.63 26.17 0 15.25 7.63 26 21 26 13.18 0 20.46-10.4 20.46-25.83s-7.66-26.39-20.83-26.39Zm107 66.21v-48.76c0-11.78-4.68-15.77-13.87-15.77-7.11 0-13.69 3.64-17.68 7.45v57h-20.46v-79.53l20.45-2.77v12.65c7.11-7.8 16.64-12.83 26.35-12.83 16.12 0 25.65 10.4 25.65 27.56v54.95Zm63.84 2.77c-10.39 0-23.05-3-31-7.45l4.51-15.95c8 4.51 18.19 7.45 27 7.45 8 0 13.18-3.29 13.18-8.84 0-6.24-6.76-8.49-16.12-10.74-15.08-3.47-27-9.71-27-24.79s12.65-25 31.89-25c9.88 0 21.67 2.6 29.12 6.42l-4.51 15.94c-7.8-4-18-6.58-25.13-6.58-7.45 0-12 2.77-12 8 0 6.06 6.76 8.14 16.12 10.4 15.25 3.64 27.21 9.53 27.21 25.13 0 14.87-12.82 25.96-33.28 25.96Zm66.71-82.7v48.71c0 11.78 4.85 15.6 13.51 15.6a26.1 26.1 0 0 0 17.51-6.94V120h20.45v79.39l-20.45 2.77v-11.82c-6.59 7.11-16.12 12.14-26.35 12.14-15.59 0-25.13-10.4-25.13-27.56V120Zm170 79.91v-48.56c0-11.79-4.68-15.95-13.17-15.95-7.11 0-12.66 3.64-16.64 7.1v57.38h-20.46v-48.53c0-11.79-4.5-15.95-13-15.95a23.66 23.66 0 0 0-16.64 6.59v57.89h-20.46v-79.56l20.45-2.77v11.26c7.46-7.45 15.6-11.44 25.48-11.44 9.71 0 17.86 4.68 21.84 13.7 8-8.67 17.51-13.7 28.43-13.7 15.08 0 24.61 10.4 24.61 27.74v54.77Zm54-35.54c.87 13 9.71 21.84 23.92 21.84a49.14 49.14 0 0 0 25-7.28l2.6 17c-7.63 4.16-18.2 6.59-28.95 6.59-25.65 0-42.64-16.3-42.64-41.78 0-26 17.34-43.33 41.26-43.33 21.14 0 32.93 12.83 32.93 32.42a52.93 52.93 0 0 1-1.74 13.34l-52.34.69Zm34.84-12.65v-1.38c0-10.75-4.68-17.51-15.25-17.51-11.27 0-18 9.19-19.07 19.06Zm54 48.19h-20.45v-79.42l20.45-2.94v13c5-8.5 11.44-13.18 20.8-13.18a27.62 27.62 0 0 1 14.22 3.64l-4.51 18.38a23.71 23.71 0 0 0-11.44-3.12c-7.11 0-13.69 4.5-19.07 14.21ZM588.68 356.78h-35.36V248.45h36.74c36.92 0 58.42 21.14 58.42 53.38 0 33.45-21.32 54.95-59.8 54.95Zm.17-90.48h-14.39v72.62h15.43c22.88 0 37.44-12 37.44-36.05 0-24.44-13.69-36.57-38.48-36.57ZM706 347.59c-5.72 6.93-12.65 11.79-22.53 11.79-14.39 0-24.79-9.88-24.79-22.54 0-14.73 10.75-27.21 47.32-28.42v-1.91c0-10.74-4.51-15.25-16-15.25-8.14 0-18 3.64-26.51 8.49l-4.16-16.12a66.44 66.44 0 0 1 33.45-9.36c24.61 0 34.14 10.92 33.62 32.94v28.59c0 6.07 1 6.94 7.11 7.28L732 358.51c-15.25 1.73-22.36-2.95-25.31-10.92Zm0-28.43c-19.93 2.43-27.21 6.42-27.21 14.91 0 6.07 4.68 10.4 12 10.4a20.48 20.48 0 0 0 15.21-6.93Zm67 40.22c-17.85 0-27.21-7.8-26.52-27l1.21-37.61-12.48-1.39.52-13 12.48-4 .35-17.68h19.76l-.32 18.69h22.5l-.5 16.82h-23.24l-1 36.91c-.17 7.46 3.64 10.92 10.57 10.92a40 40 0 0 0 12.48-2.42l2.77 16.64a54.05 54.05 0 0 1-18.58 3.12Zm73.29-11.79c-5.72 6.93-12.65 11.79-22.53 11.79-14.39 0-24.79-9.88-24.79-22.54 0-14.73 10.75-27.21 47.32-28.42v-1.91c0-10.74-4.5-15.25-15.94-15.25-8.15 0-18 3.64-26.52 8.49l-4.16-16.12a66.44 66.44 0 0 1 33.45-9.36c24.61 0 34.15 10.92 33.63 32.94v28.59c0 6.07 1 6.94 7.1 7.28l-1.56 15.43c-15.25 1.73-22.36-2.95-25.3-10.92Zm0-28.43c-19.93 2.43-27.21 6.42-27.21 14.91 0 6.07 4.68 10.4 12 10.4a20.48 20.48 0 0 0 15.25-6.93Zm89.28 37.62h-21.14V248.45h38c27.39 0 42 13 42 32.93 0 15.43-8.67 26.17-23.4 31.2l28.43 44.2h-24.1l-24.09-39.7-15.6 1Zm15.6-55.64c13-.69 21.49-6.59 21.49-18.37 0-11.27-8.49-16.64-23.57-16.64H935.4v35.36Zm69.38-38.83c-8 0-12.48-4.85-12.48-12.3 0-7.28 4.51-12.31 12.48-12.31 8.14 0 12.65 5 12.65 12.31 0 7.45-4.51 12.3-12.65 12.3Zm-10.23 94.47v-79.39l20.45-2.94v82.33Zm35-10.58c0-7.28 5.9-13.86 14.74-16.81-8.84-4.51-14.56-13.52-14.56-24.61 0-16.47 13-30.51 35.18-30.51a56.9 56.9 0 0 1 22.53 5l21.5-1.91.86 17.86-15.25-2.6c2.08 2.25 3.64 8.32 3.64 12.47 0 16.3-13.69 29.12-33.45 29.12a41.88 41.88 0 0 1-10.92-1.38c-2.77 1-6.24 3.64-6.24 6.93 0 4.33 3.64 6.24 16.46 6.24h8.32c22.88 0 35.88 6.41 35.88 22 0 18.9-21.32 31.89-46.62 31.89-21.15 0-38-7.8-38-22.18 0-8.32 6.07-15.77 18-17.68-6.88-2.39-12.08-7.41-12.08-13.83Zm12.68 27.39c0 7.45 9.18 12.65 22.7 12.65 14 0 24.79-5.2 24.79-13.52 0-7.45-7.28-9.18-22.19-9.18-5 0-12-.35-15.25-.7-5.75 2.08-10.05 5.9-10.05 10.75Zm22.88-52.69c9.18 0 14.38-6.59 14.38-16.64 0-9.53-5-16.12-15.25-16.12-9 0-14.73 6.76-14.73 16.81-.03 9.53 5.72 15.95 15.57 15.95Zm105.91 35.88v-48.71c0-11.78-4.68-15.77-13.34-15.77a27 27 0 0 0-18.2 7.45v57h-20.46V241l20.46-2.78v48.71c7.1-7.8 16.64-12.66 27-12.66 15.43 0 25 10.4 25 27.56v54.95Zm67.47 2.6c-17.85 0-27.21-7.8-26.52-27l1.21-37.61-12.47-1.39.52-13 12.48-4 .34-17.68h19.76l-.35 18.72h22.54l-.52 16.82H1248l-1 36.91c-.17 7.46 3.64 10.92 10.57 10.92a40 40 0 0 0 12.48-2.42l2.78 16.64a54.15 54.15 0 0 1-18.6 3.09Z"/></svg>