<svg xmlns="http://www.w3.org/2000/svg" xml:space="preserve" viewBox="0 0 114.3 76.1"><g id="CBA_Alpha_1.0_Logo"><path fill="#000" d="M6.6 68.6c0-2.8 1.5-4.2 3.6-4.2 1.5 0 2.8.8 3.1 2.5H12c-.2-1-.9-1.4-1.8-1.4-1.3 0-2.3.9-2.3 3.1s1 3.1 2.3 3.1c.8 0 1.6-.4 1.8-1.4h1.3c-.2 1.6-1.5 2.5-3.1 2.5-2.1.1-3.6-1.4-3.6-4.2zM13.8 69.7c0-1.9 1.2-3.1 2.8-3.1 1.6 0 2.8 1.2 2.8 3.1 0 1.9-1.2 3.1-2.8 3.1-1.6.1-2.8-1.1-2.8-3.1zm4.4 0c0-1.4-.6-2.1-1.6-2.1-.9 0-1.6.7-1.6 2.1s.7 2.1 1.6 2.1c.9.1 1.6-.6 1.6-2.1zM28.7 68.8v3.9h-1.2V69c0-1-.4-1.3-1.1-1.3-.8 0-1.4.6-1.4 1.7v3.4h-1.2V69c0-1-.4-1.3-1.1-1.3-.8 0-1.4.6-1.4 1.7v3.4h-1.2v-5.9h1.2v.9c.4-.7 1.1-1.1 1.8-1.1.8 0 1.4.4 1.7 1.2.4-.8 1.1-1.2 1.9-1.2 1.1-.1 2 .6 2 2.1zM38.3 68.8v3.9H37V69c0-1-.4-1.3-1.1-1.3-.8 0-1.4.6-1.4 1.7v3.4h-1.2V69c0-1-.4-1.3-1.1-1.3-.8 0-1.4.6-1.4 1.7v3.4h-1.2v-5.9h1.2v.9c.4-.7 1.1-1.1 1.8-1.1.8 0 1.4.4 1.7 1.2.4-.8 1.1-1.2 1.9-1.2 1.2-.1 2.1.6 2.1 2.1zM39 69.7c0-1.9 1.2-3.1 2.8-3.1 1.6 0 2.8 1.2 2.8 3.1 0 1.9-1.2 3.1-2.8 3.1-1.6.1-2.8-1.1-2.8-3.1zm4.4 0c0-1.4-.6-2.1-1.6-2.1s-1.6.7-1.6 2.1.7 2.1 1.6 2.1 1.6-.6 1.6-2.1zM50.5 68.8v3.9h-1.2v-3.6c0-1-.5-1.4-1.2-1.4s-1.5.5-1.5 1.7v3.3h-1.2v-5.9h1.2v.9c.4-.8 1.1-1.1 1.9-1.1 1.1 0 2 .7 2 2.2zM58 66.8h1.2l-1.5 5.9h-1.5l-1.1-4.5-1.2 4.5h-1.5l-1.5-5.9h1.2l1.1 4.8 1.2-4.8h1.2l1.2 4.7 1.2-4.7zM64.8 70.1h-4.2c.1 1.2.7 1.8 1.7 1.8.6 0 1.1-.2 1.3-.7h1.2c-.3 1.1-1.3 1.7-2.5 1.7-1.7 0-2.8-1.2-2.8-3.1 0-1.9 1.2-3.1 2.9-3.1 1.5 0 2.5 1 2.5 2.8-.1.2-.1.3-.1.6zm-4.2-1h3c0-1.1-.7-1.5-1.4-1.5-.8 0-1.4.5-1.6 1.5zM71 71.8v.9c-.2 0-.4.1-.6.1-.6 0-1-.3-1.2-.8-.3.5-1.1.9-1.9.9-1.3 0-2.1-.8-2.1-1.9 0-1.1.9-1.8 2-1.8l1.8-.1v-.3c0-.8-.4-1.2-1.2-1.2-.8 0-1.2.3-1.3.9h-1.3c.2-1.2 1.2-1.8 2.6-1.8 1.5 0 2.3.8 2.3 2.1v2.6c0 .3.2.5.5.5.3-.1.3-.1.4-.1zm-1.8-1.2V70h-1.6c-.7 0-1 .3-1 .8 0 .6.4 1 1.2 1 .8.1 1.4-.4 1.4-1.2zM71.7 72.7v-8.2h1.2v8.2h-1.2zM91.9 70.4c0 1.5-1 2.3-2.7 2.3h-3.4v-8.2h3.5c1.5 0 2.4.8 2.4 2.1 0 .9-.4 1.5-1.1 1.8.8.3 1.3 1.1 1.3 2zm-5-4.8V68H89c.9 0 1.4-.4 1.4-1.2s-.5-1.2-1.4-1.2h-2.1zm2.3 6c1 0 1.5-.4 1.5-1.3s-.5-1.3-1.5-1.3H87v2.6h2.2zM98.1 71.8v.9c-.2 0-.4.1-.6.1-.6 0-1-.3-1.2-.8-.3.5-1.1.9-1.9.9-1.3 0-2.1-.8-2.1-1.9 0-1.1.9-1.8 2-1.8l1.8-.1v-.3c0-.8-.4-1.2-1.2-1.2-.8 0-1.2.3-1.3.9h-1.3c.2-1.2 1.2-1.8 2.6-1.8 1.5 0 2.3.8 2.3 2.1v2.6c0 .3.2.5.5.5.3-.1.3-.1.4-.1zm-1.8-1.2V70h-1.7c-.7 0-1 .3-1 .8 0 .6.4 1 1.2 1 .8.1 1.5-.4 1.5-1.2zM103.8 68.8v3.9h-1.2v-3.6c0-1-.5-1.4-1.2-1.4s-1.5.5-1.5 1.7v3.3h-1.2v-5.9h1.2v.9c.4-.8 1.1-1.1 1.9-1.1 1.1 0 2 .7 2 2.2zM109.8 66.8l-2.5 2.9 2.5 3.1h-1.5l-2.3-2.9v2.9h-1.2v-8.2h1.2v5.1l2.4-2.8h1.4zM74.6 71.2v-3.4h-1v-1h1v-1.4l1.2-.7v2.1h1.3v1h-1.3v3.1c0 .6.3.8.7.8.2 0 .4 0 .7-.1v1c-.3.1-.7.2-1 .2-.9 0-1.6-.6-1.6-1.6zM78 72.7v-8.2h1.2v3.2c.4-.8 1.3-1.1 2.1-1.1 1.1 0 2 .7 2 2.2v3.9H82v-3.6c0-1-.7-1.4-1.4-1.4s-1.5.5-1.5 1.7v3.3H78z" class="st0"/><g><linearGradient id="SVGID_1_" x1="31.928" x2="84.039" y1="29.034" y2="29.034" gradientUnits="userSpaceOnUse"><stop offset=".319" stop-color="#fced00"/><stop offset=".485" stop-color="#fcea04"/><stop offset=".647" stop-color="#fde010"/><stop offset=".801" stop-color="#ffcf22"/></linearGradient><path fill="url(#SVGID_1_)" d="M58 55.1 31.9 29 58 3l26 26z"/><linearGradient id="SVGID_2_" x1="44.956" x2="81.804" y1="16.006" y2="52.854" gradientUnits="userSpaceOnUse"><stop offset=".009" stop-color="#fced00"/><stop offset=".203" stop-color="#fde509" stop-opacity=".627"/><stop offset=".518" stop-color="#ffd021" stop-opacity=".021"/><stop offset=".529" stop-color="#ffcf22" stop-opacity="0"/></linearGradient><path fill="url(#SVGID_2_)" d="M58 55.1 31.9 29 58 3l26 26z"/><linearGradient id="SVGID_3_" x1="52.709" x2="107.965" y1="38.677" y2="38.677" gradientUnits="userSpaceOnUse"><stop offset="0" stop-color="#f58a1f"/><stop offset=".071" stop-color="#f68f20"/><stop offset=".152" stop-color="#f89d23"/><stop offset=".203" stop-color="#faa925"/><stop offset=".28" stop-color="#faac23" stop-opacity=".926"/><stop offset=".343" stop-color="#fbb61e" stop-opacity=".866"/><stop offset=".4" stop-color="#fdc716" stop-opacity=".811"/><stop offset=".454" stop-color="#ffdf0a" stop-opacity=".759"/><stop offset=".464" stop-color="#ffe407" stop-opacity=".75"/><stop offset=".7" stop-color="#fced00" stop-opacity=".3"/></linearGradient><path fill="url(#SVGID_3_)" d="M67.9 31.6v.1h-.1L58 55.1 84 29l-5-5-1.7-1.7z"/><linearGradient id="SVGID_4_" x1="64.041" x2="72.468" y1="36.33" y2="41.846" gradientUnits="userSpaceOnUse"><stop offset=".003" stop-color="#f58a1f"/><stop offset=".492" stop-color="#ffc71c" stop-opacity="0"/></linearGradient><path fill="url(#SVGID_4_)" d="M67.9 31.6v.1h-.1L58 55.1 84 29l-5-5-1.7-1.7z"/><linearGradient id="SVGID_5_" x1="63.65" x2="75.697" y1="35.833" y2="44.449" gradientUnits="userSpaceOnUse"><stop offset=".016" stop-color="#1e0700"/><stop offset=".479" stop-color="#ffc71c" stop-opacity="0"/></linearGradient><path fill="url(#SVGID_5_)" d="M67.9 31.6v.1h-.1L58 55.1 84 29l-5-5-1.7-1.7z" opacity=".4"/></g></g></svg>