<svg xmlns="http://www.w3.org/2000/svg" xml:space="preserve" id="Layer_1" x="0" y="0" version="1.1" viewBox="-280 -200 1000 1000"><path fill="#ed0000" d="m439.55 317.16-74.48-93.29 74.48-93.29c4.52-5.61 2.25-10.11-4.5-10.11h-28.23c-1.13 0-3.38 1.12-4.5 2.25l-97.05 101.15h-5.66l74.48-93.29c4.52-5.61 2.25-10.11-4.5-10.11h-28.22c-1.14 0-3.39 1.12-4.52 2.25L239.8 223.87h-5.66l81.26-101.15c1.12-1.12 1.12-3.38 1.12-4.5L288.33 5.85c-1.14-6.75-6.78-7.88-11.3-2.25l-74.48 93.29L95.34 45.18c-6.77-3.38-10.16 0-9.03 6.75l25.95 115.76L5.09 219.38c-6.78 3.38-6.78 7.88 0 11.25l107.21 51.69-25.96 115.75c-1.14 6.75 2.25 10.12 9.02 6.75l107.22-51.71 74.48 93.3c4.52 5.61 9.03 4.49 11.3-2.25L314.3 328.4h119.63c7.91-1.12 10.15-5.62 5.64-11.25l-.02.01z"/><linearGradient id="SVGID_1_" x1="234.15" x2="441.893" y1="285.245" y2="285.245" gradientUnits="userSpaceOnUse"><stop offset="0" stop-color="#ed0000"/><stop offset=".077" stop-color="#e90000"/><stop offset=".649" stop-color="#d10000"/><stop offset="1" stop-color="#c80000"/></linearGradient><path fill="url(#SVGID_1_)" d="m439.55 317.16-74.48-93.29 74.48-93.29c4.52-5.61 2.25-10.11-4.5-10.11h-28.23c-1.12 0-3.38 1.12-4.5 2.25l-97.05 101.15h-5.66l74.48-93.29c4.52-5.61 2.25-10.11-4.5-10.11h-28.22c-1.14 0-3.39 1.12-4.52 2.25L239.8 223.87h-5.66v168.8l42.9 53.74c4.52 5.61 9.03 4.48 11.3-2.25L314.3 328.4h119.63c7.91-1.12 10.16-5.62 5.64-11.25l-.02.01z"/><linearGradient id="SVGID_00000034772281106353053110000005830178032319420831_" x1="340.849" x2="340.849" y1="228.156" y2="70.944" gradientUnits="userSpaceOnUse"><stop offset="0" stop-color="#a50000" stop-opacity="0"/><stop offset="1" stop-color="#a50000"/></linearGradient><path fill="url(#SVGID_00000034772281106353053110000005830178032319420831_)" d="M299.61 223.88H239.8l97.05-101.15c1.12-1.12 3.38-2.25 4.52-2.25h28.22c6.75 0 9.02 4.5 4.5 10.11l-74.48 93.29zm139.94-93.29c4.52-5.61 2.25-10.11-4.5-10.11h-28.23c-1.12 0-3.38 1.12-4.5 2.25l-97.05 101.15h59.8l74.48-93.29z"/><g><path fill="#000" d="M99.66 569.92c1.97-2.14 4.49-4.62 6.62-6.6 5.44-5.07 11.75-7.93 19.36-7.64 6.51.25 11.11 3.36 13.48 9.42 1.75 4.47 2.24 9.17 2.25 13.91.04 19.66.02 60.22.02 60.22h25.36s.01-43.25-.01-64.44c-.01-6.13-.67-12.18-2.62-18.03-2.81-8.44-7.89-14.93-16.15-18.66-5.25-2.37-10.82-3.22-16.54-3.31-6.58-.1-12.98.76-19.05 3.47-6.01 2.68-11.81 7.45-16.47 12.01l-2.68-12.73-27.57 1.49v12.98l8.63 1.16v86.03h25.34l.03-69.28zM246.54 576.94c-.55 0-7.96.01-11.67 0-6.5-.02-12.96.36-19.36 1.52-6.2 1.13-12.16 2.91-17.62 6.16-6.54 3.89-11.13 9.34-13.22 16.73-1.44 5.08-1.6 10.25-.84 15.45 1.5 10.19 6.79 17.62 16.29 21.8 8.34 3.67 17.11 4.1 25.99 2.87 9.8-1.35 17.47-5.8 24.22-11.81l1.97 9.59h19.62l-.03-69.99c-.05-4.82-.71-9.54-2.43-14.07-3.28-8.65-9.62-14.1-18.18-17.09-10.2-3.56-20.74-3.88-31.36-2.74-7.4.79-14.6 2.56-21.68 4.79-2.23.7-4.44 1.47-6.69 2.22 1.33 6.48 2.63 12.84 3.93 19.24 8.35-3.23 16.85-5.22 25.66-5.77 5.04-.32 10.09-.29 15.05.84 4.94 1.13 8.44 3.82 9.65 8.96.9 3.66.79 7.57.7 11.3zm-14.6 43.11c-3.97 1.16-8 1.46-12.07.71-7.25-1.32-11.18-6.19-11.08-13.57.07-5.59 2.67-9.5 7.7-11.84 3.43-1.59 7.08-2.4 10.81-2.55 6.28-.24 19.31-.29 19.31-.29s-.01 13.71.02 18.75c-4.38 3.83-9.04 7.15-14.69 8.79zM292.22 633.74c9.71 2.93 20.12 5.87 30.18 7.35 9.34 1.37 18.67 1.37 27.92-.66 10.12-2.22 18.92-6.81 25.81-14.7 5.71-6.54 9.14-14.21 11.12-22.58 1.96-8.32 2.46-16.76 1.83-25.28-.49-6.71-1.82-13.25-4.46-19.48-4.31-10.15-11.22-17.73-21.87-21.35-8.78-2.98-17.71-3.04-26.63-.56-6.82 1.9-12.51 5.77-17.65 10.52-.24.22-.48.43-.92.83V499l-33.87 1.81v13.02l8.56 1.16-.02 118.75zm67.59-28.07c-3.8 9.68-11.6 15.08-22.01 15.46-6.51.24-14.34-2.13-20.26-4.58V570.7c2.84-3.22 6.49-7.07 9.97-9.62 4.7-3.44 9.88-5.44 15.79-5.4 6.96.05 12.01 3.18 15.24 9.3 2.15 4.07 3.17 8.48 3.68 13.01.34 3.01.47 6.05.59 7.68-.07 7.75-.65 14.02-3 20z"/></g></svg>