<svg xmlns="http://www.w3.org/2000/svg" version="1.0" viewBox="-.863 -.863 153.85 30.475"><path fill="#ed1a3a" d="M0 0c.811.343 1.344 2.438 1.344 2.438l5.031 17.5c.58 2.19 2.415 3.343 4.469 3.343h11.031c-.79-.141-1.656-2.468-1.656-2.468L14.625 3.405C13.82.748 12.462 0 10.406 0H0zm46.688 0c-2.062 0-3.395.748-4.188 3.406l-5.625 17.407s-.858 2.327-1.656 2.468H46.25c2.064 0 3.881-1.153 4.469-3.343l5.031-17.5S56.299.342 57.125 0H46.687zm-24.25.125v23.156h12.28V.125h-12.28z"/><path fill="#000" d="m94.969 5.219-4.844.468V8.25h-1.969v2.563h1.969v7.906c0 1.243.235 2.176.656 2.812.447.655 1.075 1.159 1.938 1.532.861.387 2.085.562 3.656.562.666 0 1.566-.117 2.719-.406v-2.5c-.568.111-1.055.187-1.469.187-.873 0-1.549-.181-2-.562-.449-.375-.656-1.106-.656-2.188v-7.343h3.812V8.25H94.97V5.219zM63.875 7.906c-1.856 0-3.425.344-4.688 1.032-1.27.683-2.21 1.618-2.874 2.812a7.938 7.938 0 0 0-1 3.906c0 1.515.38 2.94 1.156 4.219.779 1.29 1.915 2.226 3.375 2.844 1.449.613 3.136.906 5.062.906 2.046 0 4.188-.27 6.469-.844V19.97c-2.012.598-3.832.906-5.438.906-1.252 0-2.225-.189-2.968-.531-.741-.343-1.348-.794-1.782-1.375-.434-.581-.697-1.389-.812-2.407h11.063c-.043-3.327-.728-5.586-2.094-6.812-1.355-1.221-3.186-1.844-5.469-1.844zm16.875 0c-2.493 0-4.346.423-5.563 1.282-1.217.84-1.812 1.923-1.812 3.218 0 1.09.373 1.952 1.188 2.625.797.694 2.063 1.339 3.75 1.906l1.624.532c.828.266 1.428.566 1.844.843.398.3.594.66.594 1.094 0 .489-.275.864-.813 1.188-.533.32-1.266.5-2.156.5-1.694 0-3.726-.426-6.125-1.25v2.968c2.203.546 4.363.813 6.469.813 2.473 0 4.354-.482 5.656-1.438 1.294-.95 1.938-2.044 1.938-3.312 0-.964-.358-1.8-1.063-2.5-.72-.694-2.22-1.406-4.531-2.156l-1.406-.469c-.839-.26-1.414-.511-1.719-.781-.327-.28-.5-.618-.5-.969 0-.457.246-.813.75-1.094.495-.286 1.25-.437 2.25-.437 1.285 0 2.899.26 4.844.781V8.437c-2.018-.358-3.757-.53-5.219-.53zm31.281 0c-1.318 0-2.477.278-3.437.813-.962.547-1.734 1.327-2.344 2.406V8.25h-4.844v20.5h4.844v-7.031c.651.55 1.23.959 1.719 1.187.499.239.986.435 1.531.563.534.124 1.147.156 1.781.156 2.389 0 4.23-.795 5.563-2.375 1.329-1.572 2-3.52 2-5.875 0-2.234-.59-4.038-1.781-5.406-1.19-1.37-2.872-2.063-5.032-2.063zm15.875 0c-2.17 0-4.342.359-6.531 1.063v2.812c1.92-.892 3.815-1.344 5.656-1.344.934 0 1.708.157 2.313.47.616.322.906.95.906 1.874v1.344h-1.281c-3.23 0-5.555.486-7 1.469-1.431.995-2.156 2.242-2.156 3.719 0 1.208.482 2.215 1.437 3.062.965.831 2.246 1.25 3.844 1.25a8.12 8.12 0 0 0 1.75-.188c.548-.127 1.087-.28 1.594-.53.507-.253 1.136-.652 1.843-1.22h.188c.34.8.858 1.313 1.5 1.563.644.256 1.412.375 2.312.375.789 0 1.694-.109 2.719-.375l-.063-2.281c-.268.03-.506.031-.687.031-.299 0-.603-.095-.906-.281-.299-.175-.438-.648-.438-1.469v-6.656c0-1.259-.322-2.184-.937-2.813-.627-.631-1.458-1.101-2.5-1.406-1.045-.3-2.245-.469-3.563-.469zm19.094 0c-3.116 0-5.519.737-7.125 2.188-1.614 1.451-2.406 3.346-2.406 5.656 0 2.214.755 4.098 2.281 5.625 1.521 1.506 3.81 2.25 6.844 2.25 1.709 0 3.552-.204 5.531-.656v-2.813c-1.504.488-2.955.75-4.375.75-.98 0-1.871-.209-2.656-.593-.783-.39-1.383-.998-1.813-1.844a5.845 5.845 0 0 1-.656-2.75 5.9 5.9 0 0 1 1.125-3.5c.756-1.063 1.954-1.563 3.594-1.563 1.157 0 2.714.265 4.656.813V8.5c-1.886-.404-3.55-.594-5-.594zM63.719 10.47c.858 0 1.558.286 2.093.875.542.586.813 1.551.813 2.906h-6.313c.152-1.241.528-2.166 1.126-2.813.6-.644 1.358-.968 2.28-.968zm46.531.656c1.106 0 1.939.433 2.531 1.25.6.815.906 1.936.906 3.344 0 1.379-.312 2.582-.937 3.656-.625 1.065-1.558 1.594-2.844 1.594a4.806 4.806 0 0 1-1.781-.344c-.584-.236-1.207-.675-1.875-1.313v-5.906c.589-.706 1.212-1.255 1.906-1.656.7-.409 1.41-.625 2.094-.625zm18.875 5.344h1.125V19.5a7.05 7.05 0 0 1-1.75 1c-.58.236-1.158.375-1.719.375a2.558 2.558 0 0 1-1.625-.563c-.451-.367-.687-.827-.687-1.406 0-.701.394-1.286 1.156-1.75.767-.461 1.93-.687 3.5-.687z"/></svg>