<?xml version="1.0" encoding="UTF-8" standalone="no"?><!DOCTYPE svg PUBLIC "-//W3C//DTD SVG 1.1//EN" "http://www.w3.org/Graphics/SVG/1.1/DTD/svg11.dtd"><svg width="100%" height="100%" viewBox="0 0 250 69" version="1.1" xmlns="http://www.w3.org/2000/svg" xmlns:xlink="http://www.w3.org/1999/xlink" xml:space="preserve" xmlns:serif="http://www.serif.com/" style="fill-rule:evenodd;clip-rule:evenodd;stroke-linejoin:round;stroke-miterlimit:2;"><g><rect x="218.294" y="42.896" width="19.307" height="1.984" style="fill:#021c55;"/><rect x="218.294" y="29.271" width="19.307" height="1.984" style="fill:#021c55;"/><rect x="218.294" y="57.041" width="19.307" height="1.984" style="fill:#021c55;"/><path d="M26.024,29.271l-13.625,29.621l2.248,0l12.431,-27.241l12.43,27.241l2.248,0l-13.621,-29.621l-2.111,-0Z" style="fill:#021c55;"/><path d="M99.02,29.271l-13.625,29.621l2.248,0l12.43,-27.241l12.43,27.241l2.249,0l-13.621,-29.621l-2.111,-0Z" style="fill:#021c55;"/><path d="M51.409,44.081l2.116,0l0,12.96l10.579,-0c11.273,-0.555 12.755,-9.68 12.827,-12.96c-0.104,-2.781 -1.246,-12.014 -12.882,-12.959l-12.64,0l0,-1.851l12.919,-0c9.903,0.653 14.667,8.02 14.719,14.802c-0.417,11.405 -9.731,14.747 -14.943,14.819l-12.695,0l0,-14.811Z" style="fill:#021c55;"/><path d="M117.925,29.271l0,1.851l10.579,0l0.133,27.77l2.115,0l0,-27.77l10.712,0l-0,-1.851l-23.539,-0Z" style="fill:#021c55;"/><path d="M150.985,29.271l-0,1.851l11.901,0c7.221,0.411 8.429,5.595 8.464,7.934c0.039,2.636 -0.434,7.605 -8.332,8.331l-12.033,0l0.001,11.505l2.115,0l-0,-9.653l8.727,-0c1.549,0.016 2.065,-0.061 2.645,-0.132l7.129,9.827l2.346,-0.031l-7.359,-10.325c5.823,-1.83 6.999,-6.562 7.009,-9.522c-0.082,-2.435 -1.31,-9.266 -10.844,-9.785l-11.769,-0Z" style="fill:#021c55;"/><rect x="185.631" y="42.896" width="19.307" height="1.984" style="fill:#021c55;"/><rect x="185.631" y="29.271" width="19.307" height="1.984" style="fill:#021c55;"/><rect x="185.631" y="57.041" width="19.307" height="1.984" style="fill:#021c55;"/></g><text x="85.208px" y="18.212px" style="font-family:'HelveticaNeue', 'Helvetica Neue';font-size:12px;fill:#021c55;">POWERED BY</text></svg>